<svg width="492" height="491" viewBox="0 0 492 491" fill="none" xmlns="http://www.w3.org/2000/svg">
<g clip-path="url(#clip0_4_479)">
<path d="M245 1H0.5V245.5H245V1Z" fill="#0059A7"/>
<path d="M245.5 245.5H367.75C435.265 245.5 490 190.765 490 123.25C490 55.7354 435.265 1 367.75 1H245.5V245.5Z" fill="#0059A7"/>
<path d="M490.75 245V489.5C423.235 489.5 368.5 434.765 368.5 367.25V245H490.75Z" fill="#0059A7"/>
<path d="M244.5 246V490.5C312.015 490.5 366.75 435.765 366.75 368.25V246H244.5Z" fill="#0059A7"/>
<path d="M0.5 244.5C68.0146 244.5 122.75 189.765 122.75 122.25C122.75 54.7354 68.0146 0 0.5 0V244.5Z" fill="white"/>
<path d="M245.75 245.5C178.235 245.5 123.5 190.765 123.5 123.25C123.5 55.7354 178.235 1 245.75 1V245.5Z" fill="white"/>
</g>
<defs>
<clipPath id="clip0_4_479">
<rect width="491" height="491" fill="white" transform="translate(0.5)"/>
</clipPath>
</defs>
</svg>
